<svg width="32" height="32" viewBox="0 0 32 32" fill="none" xmlns="http://www.w3.org/2000/svg">
<g id="pepicons-pop:hamburger-circle-off" clip-path="url(#clip0_366_128)">
<g id="Group">
<path id="Vector" fill-rule="evenodd" clip-rule="evenodd" d="M23.8685 20.683C25.4537 20.8947 26.4568 21.7821 26.4568 23.3489C26.4568 25.1827 25.0869 26.2117 22.8666 26.6806C21.4131 26.9883 19.7491 27.0744 16.8654 27.0806L16.0346 27.0818H15.1263C12.2414 27.0744 10.5774 26.987 9.12385 26.6806C6.90477 26.2129 5.53369 25.1815 5.53369 23.3489C5.53369 21.7821 6.53677 20.8947 8.122 20.683C9.04508 20.56 9.57431 20.587 12.3214 20.8197C13.8845 20.9526 14.8962 21.0117 15.9952 21.0117C17.0943 21.0117 18.1072 20.9526 19.6691 20.8209C22.4162 20.587 22.9454 20.5587 23.8685 20.683ZM16.8592 24.619C21.8611 24.6092 23.9952 24.1587 23.9952 23.3489C23.9952 23.2861 23.9977 23.248 23.9805 23.2209C23.9485 23.1717 23.85 23.163 23.5411 23.1224C22.8851 23.035 22.3571 23.0621 19.8771 23.2726C18.2512 23.4104 17.1817 23.4732 15.9952 23.4732C14.81 23.4732 13.7392 23.4117 12.1134 23.2726C9.63338 23.0634 9.10538 23.035 8.44938 23.1224C8.14169 23.1643 8.042 23.1717 8.01 23.2209C7.99277 23.248 7.99523 23.2861 7.99523 23.3489C7.99523 24.1587 10.1294 24.6092 15.1312 24.619L15.9558 24.6203L16.8592 24.619Z" fill="white"/>
<path id="Vector_2" d="M7.24577 16.7901C7.14192 16.8572 7.02563 16.9029 6.9038 16.9242C6.78198 16.9456 6.6571 16.9423 6.53658 16.9144C6.41607 16.8866 6.30238 16.8348 6.20227 16.7622C6.10216 16.6895 6.01767 16.5975 5.95381 16.4916C5.88996 16.3856 5.84804 16.268 5.83056 16.1455C5.81307 16.0231 5.82038 15.8984 5.85203 15.7788C5.88368 15.6592 5.93904 15.5472 6.01482 15.4495C6.0906 15.3517 6.18525 15.2702 6.29316 15.2097C7.09177 14.7184 8.01149 14.4593 8.94916 14.4614C9.58916 14.4614 9.9707 14.5747 10.5442 14.8553L10.559 14.8627C10.9135 15.035 11.0513 15.0768 11.3849 15.0768C11.7085 15.0768 11.8242 15.0399 12.1356 14.8762L12.1492 14.8688C12.6944 14.5808 13.0722 14.4614 13.7196 14.4614C14.3793 14.4614 14.7584 14.5845 15.3049 14.8799C15.6076 15.0448 15.7061 15.0768 16.0002 15.0768C16.2944 15.0768 16.3916 15.0448 16.6882 14.8836C17.2409 14.5845 17.6199 14.4614 18.2796 14.4614C18.9319 14.4614 19.3085 14.5808 19.8636 14.8713L19.8698 14.875C20.1873 15.0411 20.3005 15.0768 20.6156 15.0768C20.9319 15.0768 21.0489 15.0399 21.3725 14.8725C21.9387 14.5796 22.3165 14.4614 22.9652 14.4614C23.8944 14.4614 24.8027 14.7076 25.6778 15.1925C25.8851 15.3145 26.0366 15.5127 26.1 15.7448C26.1635 15.9768 26.1338 16.2245 26.0173 16.435C25.9008 16.6455 25.7067 16.8022 25.4764 16.8717C25.2461 16.9413 24.9977 16.9181 24.7842 16.8073C24.1762 16.4713 23.5732 16.3076 22.9652 16.3076C22.6612 16.3076 22.5492 16.3421 22.2304 16.5082L22.2218 16.5119C21.6593 16.8036 21.2765 16.923 20.6156 16.923C19.9535 16.923 19.5719 16.8024 19.0119 16.5094L19.0058 16.5057C18.6932 16.3421 18.5836 16.3076 18.2796 16.3076C17.9756 16.3076 17.8747 16.3408 17.5756 16.5033C17.0267 16.8011 16.6513 16.923 16.0002 16.923C15.3492 16.923 14.9738 16.8011 14.4298 16.5057C14.1245 16.3408 14.0236 16.3076 13.7196 16.3076C13.4205 16.3076 13.3135 16.3408 13.0132 16.5008L12.9984 16.5082C12.4445 16.8011 12.0544 16.923 11.3849 16.923C10.7239 16.923 10.3338 16.8073 9.74916 16.5217L9.73439 16.5144C9.38977 16.347 9.26054 16.3076 8.94916 16.3076C8.34608 16.3076 7.78362 16.4664 7.24577 16.7901ZM7.38485 17.5384H24.6156C26.2562 17.5384 26.2562 19.9999 24.6156 19.9999H7.38485C5.74423 19.9999 5.74423 17.5384 7.38485 17.5384Z" fill="white"/>
<path id="Vector_3" fill-rule="evenodd" clip-rule="evenodd" d="M23.5977 13.7971C25.3995 13.3885 26.4617 12.2857 26.4617 10.479C26.4617 6.65127 21.829 4.18604 16.0001 4.18604C10.1712 4.18604 5.53857 6.65127 5.53857 10.479C5.53857 12.2857 6.60073 13.3885 8.40257 13.7959C9.54719 14.0556 10.5318 14.0716 13.5213 13.9867C14.3473 13.9589 15.1737 13.9437 16.0001 13.9411C16.7189 13.9411 17.3466 13.9534 18.4789 13.9867C21.4697 14.0728 22.453 14.0556 23.5989 13.7959M16.0001 6.64634C20.65 6.64634 24.0001 8.4285 24.0001 10.4777C24.0001 11.0291 23.8143 11.2223 23.0537 11.3947C22.2007 11.5879 21.2801 11.6027 18.549 11.5239C17.6997 11.4962 16.8499 11.4814 16.0001 11.4796C15.2518 11.4796 14.6057 11.4919 13.4512 11.5251C10.7189 11.6039 9.79827 11.5891 8.94657 11.3959C8.18596 11.2236 7.99888 11.0303 7.99888 10.479C7.99888 8.42973 11.3503 6.64757 15.9989 6.64757" fill="white"/>
<path id="Vector_4" d="M11.2001 9.84618C11.2001 10.042 11.1223 10.2299 10.9838 10.3684C10.8453 10.5068 10.6575 10.5846 10.4616 10.5846C10.2658 10.5846 10.0779 10.5068 9.93943 10.3684C9.80095 10.2299 9.72314 10.042 9.72314 9.84618C9.72314 9.65033 9.80095 9.4625 9.93943 9.32401C10.0779 9.18552 10.2658 9.10772 10.4616 9.10772C10.6575 9.10772 10.8453 9.18552 10.9838 9.32401C11.1223 9.4625 11.2001 9.65033 11.2001 9.84618ZM14.277 8.61541C14.277 8.71239 14.2579 8.80842 14.2208 8.89801C14.1837 8.98761 14.1293 9.06901 14.0607 9.13759C13.9921 9.20616 13.9107 9.26055 13.8211 9.29766C13.7315 9.33478 13.6355 9.35388 13.5385 9.35388C13.4416 9.35388 13.3455 9.33478 13.2559 9.29766C13.1663 9.26055 13.0849 9.20616 13.0164 9.13759C12.9478 9.06901 12.8934 8.98761 12.8563 8.89801C12.8192 8.80842 12.8001 8.71239 12.8001 8.61541C12.8001 8.41956 12.8779 8.23173 13.0164 8.09324C13.1548 7.95476 13.3427 7.87695 13.5385 7.87695C13.7344 7.87695 13.9222 7.95476 14.0607 8.09324C14.1992 8.23173 14.277 8.41956 14.277 8.61541ZM16.7385 10.4616C16.7385 10.6574 16.6607 10.8453 16.5222 10.9837C16.3838 11.1222 16.1959 11.2 16.0001 11.2C15.8042 11.2 15.6164 11.1222 15.4779 10.9837C15.3394 10.8453 15.2616 10.6574 15.2616 10.4616C15.2616 10.2657 15.3394 10.0779 15.4779 9.9394C15.6164 9.80091 15.8042 9.72311 16.0001 9.72311C16.1959 9.72311 16.3838 9.80091 16.5222 9.9394C16.6607 10.0779 16.7385 10.2657 16.7385 10.4616ZM19.2001 8.61541C19.2001 8.81127 19.1223 8.9991 18.9838 9.13759C18.8453 9.27607 18.6575 9.35388 18.4616 9.35388C18.2658 9.35388 18.0779 9.27607 17.9394 9.13759C17.8009 8.9991 17.7231 8.81127 17.7231 8.61541C17.7231 8.41956 17.8009 8.23173 17.9394 8.09324C18.0779 7.95476 18.2658 7.87695 18.4616 7.87695C18.6575 7.87695 18.8453 7.95476 18.9838 8.09324C19.1223 8.23173 19.2001 8.41956 19.2001 8.61541ZM22.277 9.84618C22.277 10.042 22.1992 10.2299 22.0607 10.3684C21.9222 10.5068 21.7344 10.5846 21.5385 10.5846C21.3427 10.5846 21.1548 10.5068 21.0164 10.3684C20.8779 10.2299 20.8001 10.042 20.8001 9.84618C20.8001 9.65033 20.8779 9.4625 21.0164 9.32401C21.1548 9.18552 21.3427 9.10772 21.5385 9.10772C21.7344 9.10772 21.9222 9.18552 22.0607 9.32401C22.1992 9.4625 22.277 9.65033 22.277 9.84618Z" fill="white"/>
<path id="Vector_5" d="M5.28348 7.02379C5.05929 6.79166 4.93523 6.48077 4.93803 6.15806C4.94084 5.83536 5.07028 5.52667 5.29847 5.29847C5.52667 5.07028 5.83536 4.94084 6.15806 4.93803C6.48077 4.93523 6.79166 5.05929 7.02379 5.28348L26.7161 24.9758C26.9403 25.2079 27.0643 25.5188 27.0615 25.8415C27.0587 26.1642 26.9293 26.4729 26.7011 26.7011C26.4729 26.9293 26.1642 27.0587 25.8415 27.0615C25.5188 27.0643 25.2079 26.9403 24.9758 26.7161L5.28348 7.02379Z" fill="white"/>
<path id="Vector_6" fill-rule="evenodd" clip-rule="evenodd" d="M16 29.5385C23.4769 29.5385 29.5385 23.4769 29.5385 16C29.5385 8.52308 23.4769 2.46154 16 2.46154C8.52308 2.46154 2.46154 8.52308 2.46154 16C2.46154 23.4769 8.52308 29.5385 16 29.5385ZM16 32C24.8369 32 32 24.8369 32 16C32 7.16308 24.8369 0 16 0C7.16308 0 0 7.16308 0 16C0 24.8369 7.16308 32 16 32Z" fill="white"/>
</g>
</g>
<defs>
<clipPath id="clip0_366_128">
<rect width="32" height="32" fill="white"/>
</clipPath>
</defs>
</svg>
